# xmcd
#
# Track frame offsets:
#	150
#	19210
#	33532
#	70267
#	91815
#	109622
#	136065
#
# Disc length: 2234 seconds
#
# Revision: 1
# Processed by: cddbd v1.4PL0 Copyright (c) Steve Scherf et al.
# Submitted via: audiograbber 1.82.02
#
DISCID=5308b807
DTITLE=Various Artist - Juice- Murmur Sampler
DYEAR=1900
DGENRE=
TTITLE0=Automatic - Apple Seed
TTITLE1=Cuttin' Up Her Legs - Died Pretty
TTITLE2=Raymond - Bluebottle Kiss
TTITLE3=Up To Our Necks In It - Skunkhour
TTITLE4=Million Dollar Man - Ammonia
TTITLE5=Catch My Drift Pt 1 and 2 - Knievel
TTITLE6=Rave Tree - Six Mile High
EXTD=
EXTT0=
EXTT1=
EXTT2=
EXTT3=
EXTT4=
EXTT5=
EXTT6=
PLAYORDER=
